<svg width="19" height="18" viewBox="0 0 19 18" fill="none" xmlns="http://www.w3.org/2000/svg">
<path d="M14.7965 15.1637C13.3308 16.6295 9.57712 15.2522 6.41245 12.0875C3.24779 8.92288 1.87054 5.1692 3.33628 3.70346L4.30135 2.73839C4.9676 2.07214 6.06541 2.08975 6.75338 2.77772L8.24819 4.27254C8.93616 4.96051 8.95378 6.05832 8.28753 6.72456L8.08024 6.93185C7.72053 7.29157 7.68534 7.87186 8.01958 8.2769C8.34198 8.66759 8.68955 9.05674 9.06641 9.43359C9.44326 9.81045 9.83241 10.158 10.2231 10.4804C10.6281 10.8147 11.2084 10.7795 11.5681 10.4198L11.7754 10.2125C12.4417 9.54622 13.5395 9.56384 14.2275 10.2518L15.7223 11.7466C16.4102 12.4346 16.4279 13.5324 15.7616 14.1986L14.7965 15.1637Z" fill="white"/>
</svg>
