<svg width="19" height="18" viewBox="0 0 19 18" fill="none" xmlns="http://www.w3.org/2000/svg">
<path d="M14.1099 1.37977C11.3874 0.873411 8.56021 0.873411 5.8377 1.37977C4.63351 1.63294 3.11518 3.05074 2.8534 4.16472C2.3822 6.34204 2.3822 8.57 2.8534 10.7473C3.16754 11.8613 4.68586 13.2791 5.8377 13.5323C5.89005 13.5323 5.94241 13.5829 5.94241 13.6336V16.8236C5.94241 16.9755 6.15183 17.0768 6.25655 16.9249L7.82723 15.3552C7.82723 15.3552 9.08377 14.0893 9.29319 13.8867C9.29319 13.8867 9.34555 13.8361 9.39791 13.8361C10.9686 13.8867 12.5916 13.7348 14.1623 13.4816C15.3665 13.2285 16.8848 11.8107 17.1466 10.6967C17.6178 8.51937 17.6178 6.29141 17.1466 4.11408C16.8325 3.05074 15.3141 1.63294 14.1099 1.37977ZM14.1623 10.8992C13.9005 11.4056 13.5864 11.8107 13.0628 12.0639C12.9058 12.1145 12.7487 12.1651 12.5916 12.2158C12.3822 12.1651 12.2251 12.1145 12.0681 12.0639C10.3927 11.4056 8.82199 10.4942 7.56545 9.17763C6.88482 8.4181 6.3089 7.55729 5.8377 6.64586C5.62827 6.19014 5.41885 5.78505 5.26178 5.32933C5.10471 4.92425 5.36649 4.51917 5.62827 4.21535C5.89005 3.91154 6.20419 3.709 6.57068 3.55709C6.83246 3.40518 7.09424 3.50646 7.30367 3.709C7.72251 4.21535 8.14136 4.72171 8.4555 5.2787C8.66492 5.63315 8.61256 6.03823 8.24607 6.29141C8.14136 6.34204 8.089 6.39268 7.98429 6.49395C7.93194 6.54458 7.82722 6.59522 7.77487 6.69649C7.67015 6.8484 7.67016 7.0003 7.72251 7.15221C8.14136 8.31683 8.9267 9.22826 10.1309 9.73462C10.3403 9.83589 10.4974 9.88653 10.7592 9.88653C11.1257 9.83589 11.2827 9.43081 11.5445 9.22826C11.8063 9.02572 12.1204 9.02572 12.4346 9.17763C12.6963 9.32954 12.9581 9.53208 13.2722 9.73462C13.534 9.93716 13.7958 10.0891 14.0576 10.2916C14.2147 10.3929 14.267 10.6461 14.1623 10.8992ZM11.9633 7.10158C11.8586 7.10158 11.911 7.10158 11.9633 7.10158C11.7539 7.10158 11.7016 7.0003 11.6492 6.8484C11.6492 6.74713 11.6492 6.59522 11.5969 6.49395C11.5445 6.29141 11.4398 6.08887 11.2304 5.93696C11.1257 5.88632 11.0209 5.83569 10.9162 5.78505C10.7592 5.73442 10.6545 5.73442 10.4974 5.73442C10.3403 5.68378 10.288 5.58251 10.288 5.4306C10.288 5.32933 10.445 5.22806 10.5497 5.22806C11.3874 5.2787 12.0157 5.73442 12.1204 6.69649C12.1204 6.74713 12.1204 6.8484 12.1204 6.89903C12.1204 7.0003 12.0681 7.10158 11.9633 7.10158ZM11.4398 4.87361C11.178 4.77234 10.9162 4.67107 10.6021 4.62044C10.4974 4.62044 10.3403 4.5698 10.2356 4.5698C10.0785 4.5698 9.97382 4.46853 10.0262 4.31662C10.0262 4.16472 10.1309 4.06345 10.288 4.11408C10.8115 4.16472 11.2827 4.26599 11.7539 4.46853C12.6963 4.92425 13.2199 5.68378 13.377 6.69649C13.377 6.74713 13.377 6.79776 13.377 6.8484C13.377 6.94967 13.377 7.05094 13.377 7.20284C13.377 7.25348 13.377 7.30412 13.377 7.35475C13.3246 7.55729 12.9581 7.60793 12.9058 7.35475C12.9058 7.30412 12.8534 7.20285 12.8534 7.15221C12.8534 6.69649 12.7487 6.24077 12.5393 5.83569C12.2251 5.37997 11.8586 5.07616 11.4398 4.87361ZM14.267 7.91174C14.1099 7.91174 14.0052 7.75984 14.0052 7.60793C14.0052 7.30412 13.9529 7.0003 13.9005 6.69649C13.6911 5.07615 12.3298 3.75963 10.7068 3.50646C10.445 3.45582 10.1832 3.45582 9.97382 3.40518C9.81675 3.40518 9.60733 3.40519 9.55497 3.20264C9.50262 3.05074 9.65968 2.89883 9.81675 2.89883C9.86911 2.89883 9.92147 2.89883 9.92147 2.89883C10.0262 2.89883 12.0681 2.94947 9.92147 2.89883C12.1204 2.94947 13.9529 4.36726 14.3194 6.49395C14.3717 6.8484 14.4241 7.20285 14.4241 7.60793C14.5288 7.75984 14.4241 7.91174 14.267 7.91174Z" fill="white"/>
</svg>
