<svg width="18" height="18" viewBox="0 0 18 18" fill="none" xmlns="http://www.w3.org/2000/svg">
<path d="M14.6594 2.78255C13.1542 1.28255 11.1472 0.449219 9.02877 0.449219C4.62458 0.449219 1.05664 4.00477 1.05664 8.39366C1.05664 9.78255 1.44689 11.1714 2.11588 12.3381L1.22698 15.6156C1.12636 15.9866 1.46456 16.3276 1.83638 16.2301L5.23783 15.3381C6.40856 15.9492 7.69079 16.2826 9.02877 16.2826C13.4329 16.2826 17.0009 12.727 17.0009 8.33811C16.9451 6.28255 16.1647 4.28255 14.6594 2.78255ZM12.8755 11.227C12.7082 11.6714 11.9277 12.1159 11.5375 12.1714C11.203 12.227 10.757 12.227 10.311 12.1159C10.0323 12.0048 9.64201 11.8937 9.19602 11.6714C7.18905 10.8381 5.90682 8.83811 5.79532 8.67144C5.68382 8.56033 4.95908 7.61588 4.95908 6.61588C4.95908 5.61588 5.46082 5.17144 5.62807 4.94922C5.79532 4.727 6.01831 4.727 6.18556 4.727C6.29706 4.727 6.46431 4.727 6.5758 4.727C6.6873 4.727 6.85455 4.67144 7.0218 5.06033C7.18905 5.44922 7.57929 6.44922 7.63504 6.50477C7.69079 6.61589 7.69079 6.727 7.63504 6.83811C7.57929 6.94922 7.52354 7.06033 7.41204 7.17144C7.30054 7.28255 7.18904 7.44922 7.13329 7.50477C7.0218 7.61589 6.9103 7.727 7.0218 7.89366C7.1333 8.11588 7.52354 8.727 8.13678 9.28255C8.91727 9.94922 9.53051 10.1714 9.75351 10.2826C9.9765 10.3937 10.088 10.3381 10.1995 10.227C10.311 10.1159 10.7012 9.67144 10.8127 9.44922C10.9242 9.227 11.0915 9.28255 11.2587 9.33811C11.426 9.39366 12.4295 9.89366 12.5967 10.0048C12.8197 10.1159 12.9312 10.1714 12.987 10.227C13.0427 10.3937 13.0427 10.7826 12.8755 11.227Z" fill="white"/>
</svg>
