<svg width="18" height="18" viewBox="0 0 18 18" fill="none" xmlns="http://www.w3.org/2000/svg">
<path d="M2 4.45384V10.527C2.00269 11.1857 2.22605 11.8161 2.62099 12.2799C3.01594 12.7436 3.55015 13.0026 4.10624 13H11.5797C11.6807 13.0006 11.7778 12.9537 11.8497 12.8695C11.9215 12.7854 11.9623 12.671 11.963 12.5513V6.47821C11.9604 5.81951 11.737 5.18903 11.3421 4.72531C10.9471 4.26159 10.4129 4.00258 9.85681 4.00519H2.38568C2.33546 4.00454 2.28563 4.01565 2.23904 4.03786C2.19245 4.06008 2.15002 4.09297 2.11419 4.13465C2.07836 4.17633 2.04983 4.22599 2.03023 4.28076C2.01064 4.33553 2.00036 4.39435 2 4.45384ZM12.4388 6.8229L15.5243 4.15292C15.7921 3.88975 16 3.95595 16 4.43195V12.5732C16 13.1149 15.746 13.0492 15.5243 12.8517L12.4388 10.1877V6.8229Z" fill="white"/>
</svg>
