<svg width="420" height="385" viewBox="0 0 420 385" fill="none" xmlns="http://www.w3.org/2000/svg">
<g clip-path="url(#clip0_178_58503)">
<path d="M364.011 26.4501C363.834 25.921 363.617 25.4061 363.361 24.9101C361.737 21.5588 358.94 18.9195 355.5 17.4918C352.06 16.0641 348.216 15.9472 344.696 17.1632C341.176 18.3792 338.224 20.8436 336.398 24.09C334.573 27.3364 334.002 31.1393 334.792 34.7788C335.582 38.4182 337.68 41.6416 340.687 43.8387C343.694 46.0357 347.402 47.0539 351.11 46.7004C354.817 46.3469 358.267 44.6464 360.804 41.9207C363.342 39.195 364.793 35.6334 364.881 31.9101C364.881 31.7301 364.881 31.5501 364.881 31.3701C364.874 29.6925 364.579 28.0286 364.011 26.4501Z" fill="#F0F0F0"/>
<path d="M349.714 37.0799C348.576 37.131 347.447 36.8643 346.453 36.3097C345.458 35.7551 344.638 34.9345 344.084 33.9399C344.06 33.89 344.046 33.8359 344.043 33.7808C344.041 33.7256 344.049 33.6704 344.067 33.6184C344.086 33.5664 344.115 33.5186 344.152 33.4776C344.189 33.4367 344.234 33.4035 344.284 33.3799C344.333 33.3545 344.386 33.3392 344.441 33.335C344.496 33.3309 344.552 33.3379 344.604 33.3556C344.656 33.3734 344.705 33.4015 344.746 33.4383C344.787 33.4751 344.82 33.5199 344.844 33.5699C345.376 34.3828 346.102 35.0505 346.956 35.5125C347.811 35.9746 348.767 36.2165 349.739 36.2165C350.71 36.2165 351.666 35.9746 352.521 35.5125C353.376 35.0505 354.102 34.3828 354.634 33.5699C354.681 33.4691 354.767 33.3908 354.871 33.3516C354.976 33.3124 355.091 33.3154 355.194 33.3599C355.244 33.3835 355.288 33.4167 355.325 33.4576C355.363 33.4986 355.391 33.5464 355.41 33.5984C355.428 33.6504 355.436 33.7056 355.434 33.7608C355.431 33.8159 355.417 33.87 355.394 33.9199C354.828 34.9169 353.998 35.739 352.997 36.2964C351.995 36.8537 350.859 37.1248 349.714 37.0799Z" fill="#E0E0E0"/>
<path d="M355.352 28.0098C355.617 28.0098 355.877 28.0887 356.097 28.2363C356.318 28.384 356.49 28.5939 356.591 28.8393C356.692 29.0848 356.718 29.3547 356.665 29.6149C356.613 29.8751 356.484 30.1139 356.296 30.3009C356.107 30.4879 355.868 30.6147 355.607 30.6653C355.346 30.7158 355.077 30.6879 354.832 30.5849C354.587 30.482 354.379 30.3086 354.233 30.087C354.087 29.8653 354.01 29.6052 354.012 29.3398C354.012 29.1643 354.046 28.9905 354.114 28.8285C354.181 28.6665 354.28 28.5194 354.405 28.3958C354.529 28.2722 354.677 28.1744 354.84 28.1082C355.002 28.0419 355.176 28.0085 355.352 28.0098Z" fill="#E0E0E0"/>
<path d="M345.41 29.3398C345.412 29.6057 345.335 29.8661 345.189 30.088C345.042 30.3099 344.833 30.4832 344.588 30.5858C344.343 30.6885 344.072 30.7159 343.811 30.6645C343.551 30.6131 343.311 30.4853 343.123 30.2973C342.935 30.1093 342.807 29.8696 342.756 29.6087C342.704 29.3479 342.732 29.0776 342.834 28.8324C342.937 28.5871 343.11 28.3779 343.332 28.2315C343.554 28.085 343.815 28.0078 344.08 28.0098C344.432 28.0124 344.769 28.1534 345.018 28.4022C345.267 28.6511 345.408 28.9879 345.41 29.3398Z" fill="#E0E0E0"/>
<path d="M277.387 170.621C282.959 165.413 283.254 156.674 278.045 151.102C272.837 145.53 264.098 145.236 258.526 150.444C252.954 155.653 252.66 164.392 257.868 169.963C263.077 175.535 271.816 175.83 277.387 170.621Z" fill="#E0E0E0"/>
<path d="M259.98 170.1C260.793 168.603 261.995 167.353 263.459 166.483C264.924 165.613 266.597 165.156 268.3 165.16C274.46 165.16 276.7 169.55 276.7 169.55C274.379 171.491 271.516 172.668 268.5 172.92C263.94 173.15 259.98 170.1 259.98 170.1Z" fill="#F5F5F5"/>
<path d="M273.64 158.291C273.642 159.377 273.322 160.44 272.719 161.344C272.117 162.249 271.259 162.954 270.256 163.371C269.252 163.788 268.147 163.897 267.082 163.686C266.016 163.474 265.037 162.951 264.268 162.183C263.5 161.414 262.977 160.435 262.765 159.369C262.554 158.303 262.663 157.199 263.08 156.195C263.497 155.191 264.202 154.334 265.106 153.732C266.011 153.129 267.073 152.809 268.16 152.811C269.614 152.811 271.007 153.388 272.035 154.416C273.063 155.443 273.64 156.837 273.64 158.291Z" fill="#F5F5F5"/>
<path d="M28.9368 293.095C30.1589 285.566 25.0465 278.472 17.518 277.25C9.98944 276.028 2.89571 281.141 1.67366 288.669C0.451605 296.198 5.564 303.291 13.0925 304.513C20.621 305.736 27.7148 300.623 28.9368 293.095Z" fill="#E0E0E0"/>
<path d="M7.32031 300.45C8.13583 298.957 9.33929 297.712 10.8037 296.846C12.2681 295.98 13.9391 295.526 15.6403 295.53C21.8103 295.53 24.0503 299.91 24.0503 299.91C21.7293 301.851 18.8655 303.028 15.8503 303.28C11.2803 303.53 7.32031 300.45 7.32031 300.45Z" fill="#F5F5F5"/>
<path d="M21.0225 288.63C21.0225 289.714 20.7011 290.774 20.099 291.675C19.4968 292.576 18.6409 293.278 17.6396 293.693C16.6383 294.108 15.5364 294.217 14.4734 294.005C13.4104 293.794 12.434 293.272 11.6676 292.505C10.9012 291.739 10.3792 290.763 10.1678 289.699C9.95635 288.636 10.0649 287.535 10.4796 286.533C10.8944 285.532 11.5968 284.676 12.498 284.074C13.3992 283.472 14.4587 283.15 15.5425 283.15C16.2621 283.15 16.9747 283.292 17.6396 283.568C18.3045 283.843 18.9086 284.247 19.4174 284.755C19.9263 285.264 20.33 285.868 20.6054 286.533C20.8808 287.198 21.0225 287.911 21.0225 288.63Z" fill="#F5F5F5"/>
<path d="M280.183 342.7C293.527 342.7 304.343 331.883 304.343 318.54C304.343 305.197 293.527 294.38 280.183 294.38C266.84 294.38 256.023 305.197 256.023 318.54C256.023 331.883 266.84 342.7 280.183 342.7Z" fill="#E0E0E0"/>
<path d="M266.23 335.3C267.649 332.68 269.751 330.493 272.313 328.972C274.875 327.45 277.801 326.651 280.78 326.66C291.58 326.66 295.49 334.33 295.49 334.33C295.49 334.33 289.39 339.8 281.15 340.22C273.16 340.63 266.23 335.3 266.23 335.3Z" fill="#F5F5F5"/>
<path d="M280.613 324.22C285.91 324.22 290.203 319.926 290.203 314.63C290.203 309.334 285.91 305.04 280.613 305.04C275.317 305.04 271.023 309.334 271.023 314.63C271.023 319.926 275.317 324.22 280.613 324.22Z" fill="#F5F5F5"/>
<path d="M254.857 22.7717C260.067 17.5621 260.067 9.11566 254.857 3.90607C249.647 -1.30353 241.201 -1.30353 235.991 3.90607C230.782 9.11566 230.782 17.5621 235.991 22.7717C241.201 27.9813 249.647 27.9813 254.857 22.7717Z" fill="#E0E0E0"/>
<path d="M237.723 22.5903C238.503 21.1483 239.658 19.9439 241.066 19.1042C242.474 18.2646 244.083 17.821 245.723 17.8203C251.723 17.8203 253.843 22.0503 253.843 22.0503C251.603 23.9232 248.841 25.0614 245.933 25.3103C241.543 25.5303 237.723 22.5903 237.723 22.5903Z" fill="#F5F5F5"/>
<path d="M250.952 11.1799C250.952 12.2286 250.64 13.2537 250.058 14.1255C249.475 14.9972 248.647 15.6766 247.677 16.0774C246.708 16.4783 245.642 16.5826 244.614 16.3773C243.586 16.172 242.641 15.6662 241.9 14.924C241.16 14.1818 240.656 13.2365 240.452 12.2077C240.249 11.179 240.355 10.113 240.758 9.14473C241.161 8.17646 241.841 7.34941 242.714 6.76824C243.587 6.18707 244.613 5.87791 245.662 5.87989C246.357 5.87989 247.046 6.01705 247.688 6.28353C248.331 6.55 248.914 6.94055 249.406 7.43283C249.897 7.92511 250.287 8.50946 250.552 9.15243C250.817 9.7954 250.953 10.4844 250.952 11.1799Z" fill="#F5F5F5"/>
<path d="M400.261 225.1C399.925 224.142 399.527 223.207 399.071 222.3C396.13 216.244 391.059 211.484 384.828 208.932C378.598 206.379 371.646 206.213 365.3 208.464C358.955 210.715 353.662 215.227 350.434 221.135C347.205 227.044 346.268 233.935 347.801 240.491C349.334 247.047 353.23 252.808 358.744 256.672C364.257 260.536 371.002 262.233 377.687 261.437C384.373 260.641 390.531 257.409 394.983 252.358C399.436 247.307 401.87 240.793 401.821 234.06C401.81 231.007 401.283 227.977 400.261 225.1Z" fill="#E0E0E0"/>
<path d="M392.723 226.38C391.043 223.77 387.953 224.85 386.383 226.94C384.743 224.94 381.603 223.94 380.033 226.64C377.373 231.15 383.123 235.17 385.813 236.73L386.583 237.17L387.343 236.69C389.983 235.03 395.553 230.79 392.723 226.38Z" fill="#FAFAFA"/>
<path d="M369.133 226.83C367.493 224.19 364.393 225.22 362.793 227.28C361.173 225.28 358.063 224.23 356.443 226.88C353.723 231.35 359.393 235.46 362.083 237.06L362.833 237.52L363.603 237.06C366.253 235.43 371.903 231.27 369.133 226.83Z" fill="#FAFAFA"/>
<path d="M373.05 249.53C367.84 248.33 365.97 242.41 365.73 239.18C365.736 239.075 365.761 238.973 365.807 238.878C365.852 238.783 365.915 238.699 365.993 238.629C366.072 238.559 366.163 238.506 366.262 238.471C366.361 238.437 366.466 238.423 366.57 238.43C366.76 238.426 366.945 238.489 367.093 238.608C367.241 238.727 367.343 238.894 367.38 239.08C367.38 239.17 368.16 248.08 374.75 248.26C381.34 248.44 382.42 239.01 382.43 238.91C382.46 238.701 382.572 238.512 382.74 238.384C382.909 238.257 383.121 238.201 383.33 238.23C383.432 238.233 383.533 238.255 383.626 238.297C383.719 238.339 383.803 238.399 383.873 238.473C383.943 238.548 383.997 238.635 384.033 238.731C384.068 238.826 384.084 238.928 384.08 239.03C384.08 239.48 382.83 250.03 374.71 249.74C374.151 249.726 373.595 249.656 373.05 249.53Z" fill="#EBEBEB"/>
<path d="M392.311 237.84C391.781 238.39 391.141 238.64 390.891 238.4C390.641 238.16 390.891 237.52 391.411 236.96C391.931 236.4 392.571 236.17 392.821 236.41C393.071 236.65 392.841 237.3 392.311 237.84Z" fill="#F5F5F5"/>
<path d="M394.572 238.111C394.042 238.671 393.402 238.911 393.152 238.671C392.902 238.431 393.152 237.781 393.672 237.241C394.192 236.701 394.832 236.441 395.072 236.681C395.312 236.921 395.112 237.531 394.572 238.111Z" fill="#F5F5F5"/>
<path d="M357.892 238.21C358.472 238.71 359.132 238.88 359.342 238.61C359.552 238.34 359.272 237.74 358.692 237.25C358.112 236.76 357.442 236.58 357.222 236.85C357.002 237.12 357.292 237.73 357.892 238.21Z" fill="#F5F5F5"/>
<path d="M355.641 238.73C356.221 239.22 356.881 239.39 357.111 239.13C357.341 238.87 357.031 238.24 356.441 237.76C355.851 237.28 355.201 237.09 354.981 237.36C354.761 237.63 355.071 238.23 355.641 238.73Z" fill="#F5F5F5"/>
<path d="M53.1921 36.6397C52.8523 35.6818 52.4514 34.7465 51.9921 33.8397C48.9461 27.7384 43.642 23.0645 37.206 20.8103C30.77 18.5561 23.7087 18.8991 17.5215 21.7664C11.3342 24.6338 6.50809 29.7997 4.06773 36.1675C1.62738 42.5353 1.76495 49.6035 4.45124 55.8716C7.13753 62.1396 12.161 67.1138 18.4552 69.7382C24.7493 72.3627 31.8185 72.4306 38.162 69.9277C44.5054 67.4247 49.6236 62.548 52.4299 56.3327C55.2362 50.1175 55.5096 43.0533 53.1921 36.6397Z" fill="#EBEBEB"/>
<path d="M45.6401 37.9202C43.9701 35.3102 40.8801 36.3902 39.3101 38.4802C37.6601 36.4802 34.5301 35.4802 32.9601 38.1802C30.3001 42.6902 36.0401 46.7102 38.7401 48.2702L39.5101 48.7102L40.2601 48.2402C42.9101 46.5302 48.4801 42.3302 45.6401 37.9202Z" fill="#FAFAFA"/>
<path d="M22.0623 38.37C20.4223 35.73 17.3223 36.76 15.7223 38.82C14.1023 36.82 10.9823 35.77 9.37228 38.42C6.65228 42.9 12.3723 47 15.0023 48.61L15.7623 49.06L16.5223 48.6C19.1823 46.97 24.8323 42.81 22.0623 38.37Z" fill="#FAFAFA"/>
<path d="M25.9723 61.0902C20.7723 59.8902 18.9023 53.9702 18.6523 50.7402C18.6689 50.5388 18.7576 50.3501 18.9021 50.2087C19.0466 50.0674 19.2372 49.9828 19.439 49.9707C19.6408 49.9585 19.8402 50.0195 20.0006 50.1425C20.161 50.2655 20.2717 50.4422 20.3123 50.6402C20.3123 50.7302 21.0923 59.6402 27.6823 59.8202C34.2723 60.0002 35.3523 50.5702 35.3623 50.4702C35.3922 50.263 35.5021 50.0756 35.6685 49.9485C35.8349 49.8214 36.0445 49.7645 36.2523 49.7902C36.3539 49.7928 36.4539 49.8156 36.5465 49.8575C36.6391 49.8993 36.7223 49.9593 36.7913 50.0339C36.8603 50.1085 36.9137 50.1962 36.9482 50.2917C36.9827 50.3873 36.9977 50.4888 36.9923 50.5902C36.9923 51.0402 35.7423 61.5902 27.6223 61.3002C27.0668 61.2849 26.5141 61.2146 25.9723 61.0902Z" fill="#E0E0E0"/>
<path d="M45.2404 49.3899C44.7104 49.9299 44.0704 50.1899 43.8204 49.9399C43.5704 49.6899 43.8203 49.0599 44.3403 48.4999C44.8603 47.9399 45.5004 47.7099 45.7504 47.9499C46.0004 48.1899 45.7703 48.8399 45.2404 49.3899Z" fill="#F5F5F5"/>
<path d="M47.5023 49.6504C46.9623 50.2104 46.3323 50.4504 46.0823 50.2104C45.8323 49.9704 46.0823 49.3204 46.5923 48.7804C47.1023 48.2404 47.7523 47.9804 48.0023 48.2304C48.2523 48.4804 48.0423 49.1104 47.5023 49.6504Z" fill="#F5F5F5"/>
<path d="M10.8116 49.7602C11.4016 50.2502 12.0616 50.4202 12.2716 50.1602C12.4816 49.9002 12.2016 49.2802 11.6216 48.7902C11.0416 48.3002 10.3716 48.1202 10.1516 48.3902C9.93156 48.6602 10.2216 49.2702 10.8116 49.7602Z" fill="#F5F5F5"/>
<path d="M8.6421 50.2704C9.2221 50.7604 9.8821 50.9404 10.1021 50.6704C10.3221 50.4004 10.0321 49.7904 9.4421 49.3004C8.8521 48.8104 8.2021 48.6404 7.9821 48.9004C7.7621 49.1604 8.0021 49.7804 8.6421 50.2704Z" fill="#F5F5F5"/>
<path d="M381.16 360.149L376.85 383.769H351.38L346.82 360.149H381.16Z" fill="#263238"/>
<path d="M361.15 357.75C360.44 348.75 355.51 339.68 347.58 333.51C345.58 331.98 341.44 328.93 344.81 327.32C348.66 325.48 356.06 334.08 357.09 335.66C354.9 328.82 348.27 323.859 341.09 321.019C337.54 319.619 334.15 318.29 337.93 316.2C341.71 314.11 349.93 319.2 351.81 321.35C347.32 316.35 341.65 311.35 335.81 308.35C329.39 305.04 332.29 299.52 338.91 303.79C343.01 306.44 349.76 313.06 349.76 313.06C349.76 313.06 339.16 296.059 342.36 294.519C346.5 292.519 353.76 315.699 355.76 320.269C355.23 316.479 354.76 307.32 358.25 306.93C361.47 306.57 360.69 329.38 361.43 333.4C361.9 335.16 362.12 336.05 362.49 337.82C362.84 334.82 364.98 326.77 368.18 327.7C370.9 328.48 369.18 334.48 368.51 337.32C366.8 344.21 365.08 350.88 365.06 357.95L361.15 357.75Z" fill="#407BFF"/>
<path d="M358.5 358.979C361.08 354.389 362.41 349.449 363.83 344.369C364.41 342.269 365.52 337.769 367.56 338.259C369.97 338.829 368.42 344.799 367.56 346.889C368.44 345.889 368.91 345.389 369.86 344.419C371.86 342.089 379.66 327.049 381.61 328.419C383.75 329.969 380.07 335.709 378.34 337.959C381.34 335.739 394.49 323.409 396.44 326.209C397.95 328.369 384.87 335.489 384.87 335.489C388.286 334.569 391.766 333.9 395.28 333.489C401.13 333.149 400.98 337.789 395.61 337.579C390.462 337.55 385.349 338.419 380.5 340.149C382.5 339.439 389.68 339.149 391.36 341.909C393.04 344.669 390.36 344.259 387.56 343.909C381.86 343.109 375.76 343.909 371.84 347.519C373.09 346.869 381.02 344.019 382.84 346.619C384.43 348.899 380.62 349.339 378.78 349.619C375.261 350.103 371.878 351.303 368.841 353.145C365.804 354.987 363.176 357.432 361.12 360.329L358.5 358.979Z" fill="#407BFF"/>
<path d="M366.981 361.06C367.811 347.72 373.671 334.22 383.081 325.06C385.431 322.78 390.361 318.26 386.401 315.87C381.831 313.14 373.061 325.87 371.841 328.25C374.421 318.09 382.301 310.73 390.841 306.51C395.061 304.43 399.081 302.46 394.591 299.36C390.101 296.26 380.371 303.78 378.131 307C383.461 299.54 390.191 292.08 397.081 287.65C404.701 282.75 401.231 274.54 393.411 280.88C388.501 284.81 380.511 294.61 380.511 294.61C380.511 294.61 393.071 269.37 389.281 267.05C384.401 264.05 375.761 298.54 373.381 305.28C374.011 299.66 374.611 286.05 370.381 285.47C366.561 284.94 367.501 318.8 366.611 324.78C366.051 327.39 365.781 328.7 365.361 331.33C364.941 326.83 362.431 314.93 358.611 316.33C355.391 317.49 357.381 326.39 358.221 330.62C360.221 340.84 362.291 350.75 362.301 361.24L366.981 361.06Z" fill="#407BFF"/>
<path d="M366.981 361.06C367.811 347.72 373.671 334.22 383.081 325.06C385.431 322.78 390.361 318.26 386.401 315.87C381.831 313.14 373.061 325.87 371.841 328.25C374.421 318.09 382.301 310.73 390.841 306.51C395.061 304.43 399.081 302.46 394.591 299.36C390.101 296.26 380.371 303.78 378.131 307C383.461 299.54 390.191 292.08 397.081 287.65C404.701 282.75 401.231 274.54 393.411 280.88C388.501 284.81 380.511 294.61 380.511 294.61C380.511 294.61 393.071 269.37 389.281 267.05C384.401 264.05 375.761 298.54 373.381 305.28C374.011 299.66 374.611 286.05 370.381 285.47C366.561 284.94 367.501 318.8 366.611 324.78C366.051 327.39 365.781 328.7 365.361 331.33C364.941 326.83 362.431 314.93 358.611 316.33C355.391 317.49 357.381 326.39 358.221 330.62C360.221 340.84 362.291 350.75 362.301 361.24L366.981 361.06Z" fill="#407BFF"/>
<path opacity="0.2" d="M366.981 361.06C367.811 347.72 373.671 334.22 383.081 325.06C385.431 322.78 390.361 318.26 386.401 315.87C381.831 313.14 373.061 325.87 371.841 328.25C374.421 318.09 382.301 310.73 390.841 306.51C395.061 304.43 399.081 302.46 394.591 299.36C390.101 296.26 380.371 303.78 378.131 307C383.461 299.54 390.191 292.08 397.081 287.65C404.701 282.75 401.231 274.54 393.411 280.88C388.501 284.81 380.511 294.61 380.511 294.61C380.511 294.61 393.071 269.37 389.281 267.05C384.401 264.05 375.761 298.54 373.381 305.28C374.011 299.66 374.611 286.05 370.381 285.47C366.561 284.94 367.501 318.8 366.611 324.78C366.051 327.39 365.781 328.7 365.361 331.33C364.941 326.83 362.431 314.93 358.611 316.33C355.391 317.49 357.381 326.39 358.221 330.62C360.221 340.84 362.291 350.75 362.301 361.24L366.981 361.06Z" fill="white"/>
<path opacity="0.2" d="M348.02 364.94L347.07 361.18H380.97L380.11 364.63L348.02 364.94Z" fill="black"/>
<path d="M343.278 361.229H384.238V353.349H343.278V361.229Z" fill="#263238"/>
<path d="M40.8208 72.5303H34.5508V111.05H40.8208V72.5303Z" fill="#407BFF"/>
<path opacity="0.2" d="M40.8208 72.5303H34.5508V111.05H40.8208V72.5303Z" fill="black"/>
<path d="M222.422 72.5303H216.152V111.05H222.422V72.5303Z" fill="#407BFF"/>
<path opacity="0.2" d="M222.422 72.5303H216.152V111.05H222.422V72.5303Z" fill="black"/>
<path d="M221.922 116.86H215.652V156.21H221.922V116.86Z" fill="#407BFF"/>
<path opacity="0.2" d="M221.922 116.86H215.652V156.21H221.922V116.86Z" fill="black"/>
<path d="M67.6124 25H189.612C197.094 25 204.269 27.9721 209.56 33.2625C214.85 38.5529 217.822 45.7282 217.822 53.21V363.2C217.822 368.902 215.557 374.371 211.525 378.403C207.493 382.435 202.025 384.7 196.322 384.7H57.7224C55.3162 384.701 52.9333 384.228 50.7101 383.308C48.4868 382.388 46.4667 381.039 44.7653 379.337C43.0638 377.636 41.7144 375.616 40.7942 373.392C39.874 371.169 39.4011 368.786 39.4024 366.38V53.26C39.3958 49.5512 40.1206 45.8775 41.5354 42.4491C42.9501 39.0208 45.027 35.905 47.6472 33.2802C50.2674 30.6553 53.3795 28.5729 56.8053 27.1521C60.2312 25.7313 63.9036 25 67.6124 25Z" fill="#407BFF"/>
<path d="M67.8894 32.3096H189.369C192.166 32.3083 194.935 32.858 197.518 33.9275C200.102 34.997 202.449 36.5651 204.427 38.5423C206.404 40.5196 207.972 42.8671 209.041 45.4507C210.111 48.0343 210.661 50.8034 210.659 53.5996V364.21C210.659 367.708 209.27 371.063 206.796 373.536C204.323 376.01 200.968 377.4 197.469 377.4H59.7994C56.3012 377.4 52.9462 376.01 50.4726 373.536C47.999 371.063 46.6094 367.708 46.6094 364.21V53.5996C46.6081 50.8042 47.1575 48.036 48.2263 45.453C49.2952 42.87 50.8624 40.523 52.8386 38.5459C54.8148 36.5688 57.1611 35.0004 59.7436 33.9304C62.326 32.8603 65.094 32.3096 67.8894 32.3096Z" fill="white"/>
<path d="M103.062 30.4497C103.062 30.6497 107.322 36.7097 109.432 39.8497C109.815 40.4158 110.33 40.8796 110.934 41.2003C111.537 41.5211 112.209 41.6891 112.893 41.6897H154.372C155.107 41.6928 155.829 41.501 156.465 41.1338C157.101 40.7666 157.628 40.2372 157.993 39.5997C159.873 36.3197 163.323 30.3397 163.413 30.4497C163.503 30.5597 103.062 30.4497 103.062 30.4497Z" fill="#407BFF"/>
<path d="M169.541 101.91C180.669 101.91 189.691 92.8889 189.691 81.7604C189.691 70.6318 180.669 61.6104 169.541 61.6104C158.412 61.6104 149.391 70.6318 149.391 81.7604C149.391 92.8889 158.412 101.91 169.541 101.91Z" fill="#E0E0E0"/>
<path d="M157.91 95.7303C159.093 93.5466 160.846 91.724 162.982 90.4563C165.117 89.1886 167.557 88.5231 170.04 88.5303C179.04 88.5303 182.3 94.9303 182.3 94.9303C178.916 97.7568 174.744 99.4713 170.35 99.8403C163.69 100.18 157.91 95.7303 157.91 95.7303Z" fill="#F5F5F5"/>
<path d="M169.902 86.5C174.321 86.5 177.902 82.9183 177.902 78.5C177.902 74.0817 174.321 70.5 169.902 70.5C165.484 70.5 161.902 74.0817 161.902 78.5C161.902 82.9183 165.484 86.5 169.902 86.5Z" fill="#F5F5F5"/>
<path d="M356.55 194.54C377.376 194.54 394.26 177.657 394.26 156.83C394.26 136.003 377.376 119.12 356.55 119.12C335.723 119.12 318.84 136.003 318.84 156.83C318.84 177.657 335.723 194.54 356.55 194.54Z" fill="#407BFF"/>
<path d="M394.938 174.43C400.328 162.61 399.218 147.02 392.238 136.43" stroke="#407BFF" stroke-linecap="round" stroke-linejoin="round"/>
<path d="M381.771 182.58C379.821 180.09 362.121 178.08 362.121 178.08L351.251 179.33C351.251 179.33 337.011 181.87 332.391 184.33C332.069 184.515 331.758 184.718 331.461 184.94C338.551 191.26 347.766 194.668 357.262 194.483C366.758 194.297 375.833 190.532 382.671 183.94C382.406 183.465 382.105 183.01 381.771 182.58Z" fill="#407BFF"/>
<path opacity="0.4" d="M381.771 182.58C379.821 180.09 362.121 178.08 362.121 178.08L351.251 179.33C351.251 179.33 337.011 181.87 332.391 184.33C332.069 184.515 331.758 184.718 331.461 184.94C338.551 191.26 347.766 194.668 357.262 194.483C366.758 194.297 375.833 190.532 382.671 183.94C382.406 183.465 382.105 183.01 381.771 182.58Z" fill="white"/>
<path d="M365.7 172.07C365.027 173.387 364.717 174.859 364.801 176.335C364.886 177.812 365.361 179.239 366.18 180.47C366.18 180.47 372.78 187.17 368.18 187.47C363.58 187.77 355.02 183.47 353.18 179.7C354.746 176.86 355.379 173.6 354.99 170.38C354.736 167.89 354.247 165.429 353.53 163.03L365.7 172.07Z" fill="#B97964"/>
<path opacity="0.2" d="M363.942 167.431L358.642 166.111C357.924 165.679 357.064 165.55 356.251 165.75C355.438 165.951 354.737 166.465 354.302 167.181C353.98 167.717 353.821 168.335 353.842 168.961C356.632 172.021 360.732 175.071 364.782 175.961C364.771 174.601 365.079 173.259 365.682 172.041C365.642 171.991 363.952 167.531 363.942 167.431Z" fill="black"/>
<path d="M352.329 151.53C354.179 152.37 354.259 160.83 349.909 160.67C345.559 160.51 346.239 148.79 352.329 151.53Z" fill="#263238"/>
<path d="M345.4 159.32C345.837 160.172 346.439 160.928 347.17 161.546C347.901 162.164 348.747 162.631 349.66 162.92C352.04 163.62 353.43 159.82 352.71 157.38C352.371 156.282 351.65 155.342 350.678 154.729C349.706 154.116 348.546 153.872 347.41 154.04C345.1 154.41 344.26 157.14 345.4 159.32Z" fill="#B97964"/>
<path opacity="0.2" d="M350.491 159.04C350.468 158.168 350.1 157.341 349.468 156.74C348.837 156.138 347.993 155.811 347.121 155.83" stroke="black" stroke-width="0.5" stroke-linecap="round" stroke-linejoin="round"/>
<path d="M360.942 154.81C360.942 155.81 361.432 156.58 362.022 156.61C362.612 156.64 363.102 155.9 363.092 154.94C363.082 153.98 362.602 153.17 362.002 153.13C361.402 153.09 360.932 153.85 360.942 154.81Z" fill="#263238"/>
<path d="M369.871 155.15C369.871 156.08 370.371 156.86 370.961 156.9C371.551 156.94 372.031 156.21 372.021 155.28C372.011 154.35 371.531 153.57 370.931 153.53C370.331 153.49 369.861 154.22 369.871 155.15Z" fill="#263238"/>
<path d="M359.18 151.39C359.238 151.401 359.298 151.398 359.355 151.383C359.412 151.367 359.465 151.339 359.51 151.3C359.912 150.941 360.396 150.689 360.92 150.565C361.444 150.441 361.99 150.45 362.51 150.59C362.563 150.61 362.62 150.618 362.676 150.615C362.733 150.611 362.788 150.596 362.838 150.569C362.888 150.543 362.932 150.506 362.967 150.461C363.002 150.416 363.027 150.365 363.04 150.31C363.071 150.193 363.057 150.069 362.999 149.963C362.941 149.856 362.845 149.777 362.73 149.74C362.073 149.548 361.379 149.525 360.711 149.674C360.043 149.823 359.423 150.138 358.91 150.59C358.827 150.674 358.781 150.787 358.781 150.905C358.781 151.022 358.827 151.136 358.91 151.22C358.977 151.307 359.073 151.367 359.18 151.39Z" fill="#263238"/>
<path d="M373.058 150.72C373.106 150.709 373.152 150.688 373.19 150.656C373.228 150.625 373.258 150.585 373.278 150.54C373.319 150.432 373.321 150.313 373.285 150.204C373.249 150.095 373.175 150.001 373.078 149.94C372.553 149.566 371.94 149.335 371.299 149.266C370.658 149.198 370.01 149.296 369.418 149.55C369.373 149.579 369.333 149.617 369.303 149.662C369.272 149.706 369.25 149.757 369.239 149.81C369.228 149.863 369.228 149.917 369.238 149.971C369.248 150.024 369.268 150.075 369.298 150.12C369.344 150.22 369.427 150.298 369.53 150.337C369.633 150.377 369.747 150.374 369.848 150.33C370.32 150.135 370.835 150.064 371.342 150.123C371.85 150.183 372.334 150.371 372.748 150.67C372.793 150.701 372.844 150.722 372.897 150.73C372.951 150.739 373.006 150.735 373.058 150.72Z" fill="#263238"/>
<path d="M361.641 153.16L363.741 152.75C363.741 152.75 362.561 154.26 361.641 153.16Z" fill="#263238"/>
<path d="M370.719 153.53L372.819 153.13C372.819 153.13 371.639 154.64 370.719 153.53Z" fill="#263238"/>
<path d="M366.77 163.77C366.162 164.596 365.614 165.465 365.13 166.37L364.62 166.2C362.31 165.38 361.5 164.2 361.31 163.2C361.229 162.698 361.27 162.183 361.43 161.7C361.51 161.425 361.628 161.163 361.78 160.92C362.985 162.059 364.421 162.925 365.99 163.46C366.46 163.67 366.77 163.77 366.77 163.77Z" fill="#263238"/>
<path d="M365.99 163.53L365.49 164.29C363.31 163.51 361.88 162.68 361.43 161.77C361.51 161.495 361.628 161.233 361.78 160.99C362.985 162.129 364.42 162.995 365.99 163.53Z" fill="white"/>
<path d="M364.638 166.2C362.328 165.38 361.518 164.2 361.328 163.2C362.202 163.525 363.011 164.002 363.718 164.61C364.183 165.031 364.505 165.587 364.638 166.2Z" fill="#D7504D"/>
<path d="M306.39 269.371C328.082 260.105 338.155 235.009 328.889 213.317C319.624 191.625 294.527 181.552 272.835 190.817C251.143 200.083 241.07 225.18 250.336 246.872C259.602 268.563 284.698 278.637 306.39 269.371Z" fill="#407BFF"/>
<path opacity="0.4" d="M306.39 269.371C328.082 260.105 338.155 235.009 328.889 213.317C319.624 191.625 294.527 181.552 272.835 190.817C251.143 200.083 241.07 225.18 250.336 246.872C259.602 268.563 284.698 278.637 306.39 269.371Z" fill="white"/>
<path d="M318.18 259.25C315.97 256.44 295.84 253.51 295.84 253.51L283.64 255.53C283.64 255.53 267.52 258.41 262.29 261.23C261.937 261.455 261.667 261.788 261.52 262.18C269.242 269.1 279.27 272.887 289.64 272.8C300.676 272.809 311.286 268.532 319.23 260.87C318.918 260.306 318.567 259.764 318.18 259.25Z" fill="#263238"/>
<path d="M245.637 212.29C239.537 225.68 240.797 243.29 248.707 255.29" stroke="#407BFF" stroke-linecap="round" stroke-linejoin="round"/>
<path d="M247.277 208.72C247.367 208.45 249.497 204.86 249.497 204.86" stroke="#407BFF" stroke-linecap="round" stroke-linejoin="round"/>
<path d="M320.968 255.221C322.098 246.151 313.298 241.81 313.688 228.71C314.368 206.24 293.118 205.141 284.828 205.981C276.538 206.821 276.448 215.851 276.448 215.851C276.448 215.851 264.268 220.401 270.008 237.571C275.218 253.171 263.728 246.121 268.128 258.321C285.308 253.871 297.128 249.961 311.528 254.201L311.778 247.58L314.328 255.31L320.968 255.221Z" fill="#263238"/>
<path d="M299.927 265.45C302.287 264.56 300.697 257.59 298.557 256.18C296.137 254.59 294.917 253.18 295.107 250.68C295.239 249.215 295.548 247.771 296.027 246.38L293.277 245.05L283.147 236.53C284.727 242.18 285.457 252.33 280.867 256.16C280.867 256.16 284.327 258.47 289.367 262.09C289.367 262.07 296.947 266.58 299.927 265.45Z" fill="#FFAF6B"/>
<path opacity="0.2" d="M295.079 251.22C292.389 249.93 289.349 247.55 289.419 244.52C289.432 243.407 289.576 242.299 289.849 241.22L295.659 247.62C295.339 248.796 295.144 250.003 295.079 251.22Z" fill="black"/>
<path d="M280.408 226.1C282.128 235.57 282.668 239.6 288.038 244.16C296.118 251.02 307.288 247.47 308.398 237.83C309.398 229.16 306.398 215.14 296.678 211.97C294.612 211.217 292.383 211.031 290.22 211.431C288.058 211.831 286.042 212.802 284.382 214.244C282.722 215.686 281.478 217.545 280.779 219.63C280.081 221.715 279.952 223.949 280.408 226.1Z" fill="#FFAF6B"/>
<path d="M293.037 228.1C293.177 229.1 293.797 229.89 294.427 229.84C295.057 229.79 295.427 228.95 295.317 227.94C295.207 226.93 294.557 226.16 293.927 226.2C293.297 226.24 292.907 227.09 293.037 228.1Z" fill="#263238"/>
<path d="M302.447 227.23C302.587 228.23 303.207 228.96 303.827 228.91C304.447 228.86 304.827 228.05 304.717 227.07C304.607 226.09 303.967 225.34 303.337 225.39C302.707 225.44 302.317 226.25 302.447 227.23Z" fill="#263238"/>
<path d="M290.739 224.76C290.801 224.762 290.862 224.75 290.919 224.726C290.976 224.702 291.027 224.666 291.069 224.62C291.444 224.19 291.92 223.859 292.454 223.657C292.987 223.455 293.563 223.387 294.129 223.46C294.187 223.473 294.247 223.474 294.305 223.463C294.364 223.451 294.419 223.428 294.468 223.394C294.517 223.36 294.558 223.317 294.589 223.266C294.62 223.216 294.641 223.159 294.649 223.1C294.667 222.974 294.635 222.845 294.561 222.741C294.486 222.636 294.375 222.565 294.249 222.54C293.533 222.431 292.802 222.504 292.122 222.753C291.442 223.001 290.836 223.416 290.359 223.96C290.274 224.051 290.227 224.171 290.227 224.295C290.227 224.42 290.274 224.54 290.359 224.63C290.464 224.722 290.6 224.769 290.739 224.76Z" fill="#263238"/>
<path d="M305.189 222.16C305.282 222.111 305.353 222.029 305.389 221.93C305.418 221.813 305.404 221.69 305.351 221.582C305.298 221.474 305.209 221.388 305.099 221.34C304.496 221.023 303.823 220.864 303.142 220.88C302.461 220.896 301.796 221.085 301.209 221.43C301.165 221.466 301.129 221.511 301.103 221.562C301.077 221.612 301.061 221.668 301.056 221.724C301.051 221.781 301.058 221.838 301.076 221.892C301.093 221.947 301.121 221.997 301.159 222.04C301.221 222.139 301.319 222.211 301.433 222.239C301.547 222.267 301.667 222.249 301.769 222.19C302.239 221.925 302.769 221.786 303.309 221.786C303.848 221.786 304.378 221.925 304.849 222.19C304.961 222.225 305.084 222.214 305.189 222.16Z" fill="#263238"/>
<path d="M299.848 226.99C300.888 228.952 302.128 230.802 303.548 232.51C303.624 232.596 303.678 232.699 303.707 232.81C303.736 232.92 303.738 233.037 303.714 233.149C303.689 233.26 303.639 233.365 303.567 233.454C303.495 233.543 303.402 233.614 303.298 233.66C302.489 233.984 301.606 234.077 300.748 233.93L299.848 226.99Z" fill="#E97F3F"/>
<path d="M293.578 226.281L295.718 225.561C295.718 225.561 294.638 227.301 293.578 226.281Z" fill="#263238"/>
<path d="M303.117 225.43L305.257 224.72C305.257 224.72 304.207 226.46 303.117 225.43Z" fill="#263238"/>
<path d="M284.008 229.1C284.008 229.1 288.268 221.25 287.478 215.27C287.478 215.27 296.678 211.97 305.098 221.34C306.438 222.83 307.388 225.43 308.668 227.63C308.668 227.63 308.838 209.32 292.588 209.27C276.338 209.22 275.238 232.13 283.768 239.03C283.089 237.455 282.758 235.753 282.8 234.038C282.841 232.324 283.253 230.639 284.008 229.1Z" fill="#263238"/>
<path d="M278.218 234.14C278.8 234.976 279.541 235.688 280.399 236.236C281.257 236.783 282.215 237.155 283.218 237.33C285.798 237.74 286.738 233.561 285.648 231.101C285.14 230.002 284.257 229.12 283.157 228.612C282.058 228.105 280.814 228.005 279.648 228.33C277.218 229.03 276.728 232.02 278.218 234.14Z" fill="#FFAF6B"/>
<path opacity="0.2" d="M283.508 233.15C283.436 232.697 283.276 232.262 283.036 231.871C282.796 231.48 282.481 231.14 282.109 230.87C281.738 230.601 281.317 230.408 280.87 230.301C280.424 230.195 279.961 230.177 279.508 230.25" stroke="black" stroke-width="0.5" stroke-linecap="round" stroke-linejoin="round"/>
<path d="M299.927 236.021C299.331 236.906 298.803 237.835 298.347 238.801L297.807 238.641C295.357 237.901 294.467 236.751 294.217 235.701C294.111 235.184 294.128 234.649 294.267 234.141C294.335 233.849 294.446 233.569 294.597 233.311C295.903 234.44 297.438 235.272 299.097 235.751C299.637 235.931 299.927 236.021 299.927 236.021Z" fill="#263238"/>
<path d="M299.097 235.75L298.637 236.53C296.337 235.83 294.807 235.03 294.297 234.11C294.365 233.819 294.476 233.539 294.627 233.28C295.921 234.416 297.446 235.259 299.097 235.75Z" fill="white"/>
<path d="M297.809 238.64C295.359 237.9 294.469 236.75 294.219 235.7C295.146 235.997 296.014 236.458 296.779 237.06C297.278 237.467 297.638 238.019 297.809 238.64Z" fill="#D7504D"/>
<path d="M322.029 114.021C340.2 95.8497 340.2 66.3886 322.029 48.2175C303.858 30.0464 274.397 30.0464 256.226 48.2175C238.055 66.3886 238.055 95.8497 256.226 114.021C274.397 132.192 303.858 132.192 322.029 114.021Z" fill="#407BFF"/>
<path opacity="0.7" d="M322.029 114.021C340.2 95.8497 340.2 66.3886 322.029 48.2175C303.858 30.0464 274.397 30.0464 256.226 48.2175C238.055 66.3886 238.055 95.8497 256.226 114.021C274.397 132.192 303.858 132.192 322.029 114.021Z" fill="white"/>
<path d="M320.25 112.9C317.84 109.83 297.47 107.6 297.47 107.6L282.58 108.89C282.58 108.89 265.02 112.03 259.32 115.09C258.916 115.315 258.528 115.569 258.16 115.85C266.907 123.65 278.276 127.862 289.993 127.641C301.711 127.42 312.914 122.784 321.36 114.66C321.031 114.048 320.66 113.46 320.25 112.9Z" fill="#407BFF"/>
<path d="M296.12 46.9997C281.62 42.0697 276.41 53.9997 276.41 53.9997C274.918 54.306 273.565 55.0844 272.55 56.2197C271.168 56.8689 270.009 57.9128 269.22 59.2197C266.22 63.9097 267.38 69.9197 269.17 73.0297C270.44 75.2197 276.32 70.9697 277.83 64.5997C285.04 67.0397 299 71.6897 301.48 71.8597C304.85 72.0997 310.15 67.9997 310.79 62.5097C311.76 54.1897 305.26 50.1097 296.12 46.9997Z" fill="#263238"/>
<path d="M282.18 108.79C282.18 108.79 283.85 101.66 280.78 88.7898L281.47 88.4998C281.05 86.6898 280.59 85.0198 280.15 83.5698C280.148 83.5498 280.148 83.5297 280.15 83.5098L297.04 95.1298C296.43 99.1798 297.51 107.13 298.22 110.48C298.22 110.48 300.13 116.61 292.11 116.48C286.24 116.35 282.18 108.79 282.18 108.79Z" fill="#FFB2A8"/>
<g opacity="0.2">
<path d="M287.951 98.0197C289.137 99.2215 290.548 100.177 292.105 100.831C293.662 101.485 295.332 101.824 297.021 101.83C296.971 101.54 297.021 101.09 296.951 100.83C296.891 100.36 296.891 99.6497 296.871 99.1597C296.851 98.6697 296.871 97.9096 296.871 97.2896C296.871 97.0396 297.001 97.0797 297.031 96.8297L297.091 96.3196L286.981 92.8896C286.151 93.4596 286.261 96.0697 287.951 98.0197Z" fill="black"/>
</g>
<path d="M274.268 73.2198C273.675 70.7031 273.734 68.0763 274.442 65.5892C275.15 63.1022 276.482 60.8375 278.312 59.0106C280.142 57.1836 282.409 55.8551 284.897 55.1513C287.386 54.4476 290.013 54.392 292.528 54.9898C303.948 57.6398 308.038 73.6599 307.258 83.8799C306.388 95.2398 293.668 102.41 283.988 95.2798C277.558 90.5398 276.688 84.0698 274.268 73.2198Z" fill="#FFB2A8"/>
<path d="M282.458 55.7698C278.458 56.5798 270.138 64.6098 270.138 64.6098C270.431 66.3427 270.966 68.0258 271.728 69.6098C271.272 69.982 270.854 70.3973 270.478 70.8498C270.043 71.3713 269.671 71.9418 269.368 72.5498C269.298 72.6898 269.238 72.8398 269.168 72.9798C269.33 73.4053 269.521 73.8195 269.738 74.2198C270.918 76.3198 274.648 80.9498 277.898 84.8498C277.609 84.2702 277.359 83.6722 277.148 83.0598C276.378 80.8998 275.428 77.8898 274.448 74.2598C275.177 74.2811 275.89 74.4766 276.528 74.8298C280.718 77.0498 282.248 79.1298 284.008 77.0898C285.078 75.8398 283.738 71.8798 282.848 68.5098C282.447 66.9256 282.215 65.3031 282.158 63.6698C282.158 61.0598 284.748 58.9098 284.748 58.9098C284.862 58.7603 284.965 58.6032 285.058 58.4398C288.648 60.7498 294.968 63.6198 301.198 60.5498C310.508 55.9498 290.448 46.8898 282.458 55.7698Z" fill="#263238"/>
<path d="M289.981 75.6194C290.081 76.7494 290.761 77.6194 291.501 77.5294C292.241 77.4394 292.761 76.5294 292.661 75.3494C292.561 74.1694 291.881 73.3494 291.141 73.4394C290.401 73.5294 289.881 74.5294 289.981 75.6194Z" fill="#263238"/>
<path d="M300.938 74.8801C301.038 76.0101 301.728 76.8801 302.458 76.7901C303.188 76.7001 303.718 75.7901 303.618 74.6101C303.518 73.4301 302.838 72.6101 302.098 72.7001C301.358 72.7901 300.838 73.7501 300.938 74.8801Z" fill="#263238"/>
<path d="M297.641 73.5293C297.641 73.5293 301.721 78.8293 303.071 81.0193C301.621 82.5793 298.851 82.1693 298.851 82.1693L297.641 73.5293Z" fill="#E8675B"/>
<path d="M287.07 69.5295C287.161 69.5571 287.258 69.5606 287.351 69.5396C287.444 69.5185 287.53 69.4737 287.6 69.4095C288.072 68.9316 288.652 68.5741 289.29 68.367C289.929 68.1599 290.608 68.1093 291.27 68.2195C291.39 68.223 291.508 68.1857 291.604 68.1137C291.7 68.0417 291.769 67.9393 291.799 67.8231C291.829 67.707 291.819 67.584 291.77 67.4744C291.721 67.3647 291.637 67.2749 291.53 67.2195C290.694 67.0743 289.836 67.1301 289.025 67.3822C288.215 67.6343 287.476 68.0756 286.87 68.6695C286.821 68.7187 286.782 68.7772 286.755 68.8416C286.729 68.9059 286.715 68.9749 286.715 69.0445C286.715 69.1142 286.729 69.1832 286.755 69.2475C286.782 69.3118 286.821 69.3703 286.87 69.4195C286.928 69.4706 286.996 69.5081 287.07 69.5295Z" fill="#263238"/>
<path d="M271.239 81.1101C271.797 82.4281 272.609 83.6227 273.63 84.625C274.652 85.6274 275.861 86.4176 277.189 86.9501C280.759 88.3501 281.709 84.4901 281.059 80.9501C280.479 77.7301 279.189 73.8501 275.439 73.9501C271.689 74.0501 269.899 77.8301 271.239 81.1101Z" fill="#FFB2A8"/>
<path opacity="0.2" d="M273.578 77.7098C273.802 77.3588 274.124 77.082 274.505 76.9146C274.886 76.7472 275.308 76.6969 275.718 76.7699C276.539 76.9353 277.276 77.385 277.798 78.0398C278.462 78.7887 278.918 79.6992 279.118 80.6798" stroke="black" stroke-width="0.5" stroke-linecap="round" stroke-linejoin="round"/>
<path d="M305.901 68.6197C305.998 68.5857 306.084 68.5271 306.151 68.4497C306.196 68.396 306.23 68.3339 306.251 68.267C306.272 68.2002 306.279 68.1298 306.272 68.0601C306.266 67.9903 306.246 67.9226 306.213 67.8607C306.18 67.7989 306.135 67.7441 306.081 67.6997C305.444 67.1505 304.685 66.7629 303.867 66.5697C303.049 66.3765 302.196 66.3833 301.381 66.5897C301.247 66.6333 301.135 66.728 301.069 66.8532C301.004 66.9785 300.99 67.1244 301.031 67.2597C301.072 67.3933 301.165 67.5052 301.289 67.5707C301.412 67.6363 301.557 67.6503 301.691 67.6097C302.339 67.4467 303.017 67.4453 303.666 67.6058C304.314 67.7662 304.914 68.0834 305.411 68.5297C305.479 68.5829 305.56 68.6189 305.645 68.6346C305.73 68.6502 305.818 68.6451 305.901 68.6197Z" fill="#263238"/>
<path d="M290.77 84.5293C293.086 85.7333 295.672 86.3222 298.28 86.2393C298.28 86.2393 297.42 89.5193 294.35 89.2393C290.64 88.9093 290.77 84.5293 290.77 84.5293Z" fill="white"/>
<path d="M294.228 83.0899C295.986 83.1126 297.677 83.7615 298.998 84.9199C299.497 85.3226 299.88 85.8506 300.108 86.4499C300.668 88.2299 294.348 86.99 291.748 85.99C289.148 84.99 289.748 83.99 291.218 83.38C292.197 83.1054 293.216 83.0072 294.228 83.0899Z" fill="#263238"/>
<path opacity="0.3" d="M282.389 66.1895C282.389 66.1895 277.779 69.1894 273.169 68.2994C268.559 67.4094 267.359 66.4295 267.359 66.4295L267.689 68.9395C270.349 70.3596 273.337 71.0497 276.349 70.9395C281.119 70.6795 283.129 69.4894 283.129 69.4894L282.389 66.1895Z" fill="white"/>
<path d="M241.231 61.7295C234.581 76.3195 235.951 95.5595 244.571 108.609" stroke="#407BFF" stroke-linecap="round" stroke-linejoin="round"/>
<path d="M243 57.8496C243.1 57.5596 245.42 53.6396 245.42 53.6396" stroke="#407BFF" stroke-linecap="round" stroke-linejoin="round"/>
<path d="M147.281 377.531C145.461 365.991 142.661 349.791 138.391 332.531C132.981 310.761 126.221 287.231 120.681 268.791C114.821 249.371 110.371 235.641 110.371 235.641L158.171 232.641C158.171 232.641 177.731 329.161 182.321 366.421C182.835 370.069 182.835 373.772 182.321 377.421L147.281 377.531Z" fill="#407BFF"/>
<path opacity="0.2" d="M147.281 377.531C145.461 365.991 142.661 349.791 138.391 332.531C132.981 310.761 126.221 287.231 120.681 268.791C114.821 249.371 110.371 235.641 110.371 235.641L158.171 232.641C158.171 232.641 177.731 329.161 182.321 366.421C182.835 370.069 182.835 373.772 182.321 377.421L147.281 377.531Z" fill="black"/>
<path opacity="0.2" d="M126.081 261.24L121.641 270.88C126.641 289.31 132.421 309.56 138.101 331.25C140.191 309.88 136.821 273.93 126.081 261.24Z" fill="black"/>
<path d="M121.471 375.071C127.221 339.421 132.391 234.261 132.391 234.261L85.4609 237.261C85.4609 237.261 90.2809 327.791 86.1209 371.341L85.4609 377.411H121.151L121.471 375.071Z" fill="#407BFF"/>
<path opacity="0.2" d="M121.471 375.071C127.221 339.421 132.391 234.261 132.391 234.261L85.4609 237.261C85.4609 237.261 90.2809 327.791 86.1209 371.341L85.4609 377.411H121.151L121.471 375.071Z" fill="black"/>
<path opacity="0.2" d="M131.641 246.75C131.641 247.166 131.518 247.573 131.287 247.918C131.056 248.264 130.727 248.533 130.343 248.691C129.958 248.85 129.536 248.891 129.128 248.809C128.72 248.727 128.346 248.526 128.053 248.232C127.76 247.937 127.56 247.562 127.481 247.154C127.401 246.746 127.444 246.323 127.604 245.94C127.765 245.556 128.035 245.229 128.382 244.999C128.729 244.77 129.136 244.648 129.551 244.65C130.107 244.653 130.638 244.875 131.03 245.269C131.422 245.663 131.641 246.195 131.641 246.75Z" fill="black"/>
<path opacity="0.2" d="M88.5312 262.681C90.8703 262.671 93.1839 262.195 95.3369 261.281C97.49 260.367 99.4394 259.033 101.071 257.357C102.703 255.681 103.985 253.697 104.842 251.521C105.699 249.345 106.113 247.019 106.061 244.681" stroke="black" stroke-linecap="round" stroke-linejoin="round"/>
<path opacity="0.2" d="M134.1 244.65C134.1 244.65 134.71 263.26 134.1 263.5C133.49 263.74 129.59 264.34 129.59 264.34" stroke="black" stroke-linecap="round" stroke-linejoin="round"/>
<g opacity="0.2">
<path d="M150.64 245.591C150.6 246.244 150.668 246.899 150.84 247.531C151.067 248.823 151.402 250.094 151.84 251.331C152.95 254.411 154.72 257.461 157.56 259.231C159.389 260.335 161.52 260.836 163.65 260.661C164.13 260.661 164.13 259.881 163.65 259.911C161.931 260.028 160.212 259.691 158.665 258.933C157.119 258.174 155.799 257.021 154.84 255.591C153.251 253.254 152.158 250.616 151.63 247.841C151.53 247.361 151.45 246.891 151.39 246.411C151.39 246.271 151.39 246.121 151.39 245.971C151.39 245.821 151.39 245.631 151.39 245.791C151.46 245.311 150.74 245.111 150.66 245.591H150.64Z" fill="black"/>
</g>
<path d="M158.53 154.77L168.78 173.03L191.39 144.62L202.1 148.62C202.1 148.62 174.24 197.24 167.23 198.07C160.22 198.9 142.73 166.67 142.73 166.67L158.53 154.77Z" fill="#8E4B4C"/>
<path d="M148.51 130.46C155.87 141.36 168.03 162.06 168.03 162.06L140.12 178.06C140.12 178.06 122.12 148.35 123 136.65C123.99 123.94 140.94 123.27 148.51 130.46Z" fill="#263238"/>
<path d="M89.5805 127.421C91.3105 127.151 93.0805 126.901 94.8405 126.681C104.078 125.48 113.376 124.812 122.691 124.681C123.851 124.681 124.981 124.681 126.091 124.811C131.352 125.133 136.588 125.778 141.771 126.741C141.771 126.741 152.341 175.371 161.331 240.071C132.051 244.571 103.201 245.661 80.3305 241.681C79.7505 236.681 84.2205 217.471 83.2005 198.161C82.7705 189.911 82.0705 180.831 80.9105 171.321C79.3105 157.671 75.8305 144.021 72.2305 130.761C72.2105 130.791 80.8005 128.801 89.5805 127.421Z" fill="#263238"/>
<path opacity="0.2" d="M88.8699 179.42L90.2798 179.19L86.3398 157.44L97.6298 194.22L91.4998 196.28L88.8699 179.42Z" fill="black"/>
<path d="M236.641 192.26L187.441 202.81C169.221 206.71 151.381 195.59 147.601 177.96C143.831 160.34 155.531 142.88 173.761 138.96L222.951 128.42" stroke="#407BFF" stroke-width="18" stroke-miterlimit="10"/>
<path opacity="0.7" d="M234.602 182.13L206.461 188.163L210.528 207.132L238.668 201.099L234.602 182.13Z" fill="white"/>
<g opacity="0.3">
<path d="M238.56 201.06L189.37 211.61C165.55 216.71 142.13 201.98 137.15 178.76C132.17 155.54 147.5 132.49 171.31 127.38L220.51 116.84L224.88 137.23L175.64 147.77C163.07 150.47 154.93 162.41 157.5 174.38C160.07 186.35 172.38 193.91 184.96 191.22L234.15 180.67L238.56 201.06Z" fill="black"/>
</g>
<path d="M234.481 182.07L185.291 192.62C167.061 196.53 149.231 185.4 145.451 167.78C141.671 150.15 153.381 132.69 171.601 128.78L220.801 118.23" stroke="#407BFF" stroke-width="18" stroke-miterlimit="10"/>
<path opacity="0.7" d="M232.594 173.218L204.453 179.251L208.239 196.91L236.379 190.877L232.594 173.218Z" fill="white"/>
<path opacity="0.7" d="M218.902 109.45L190.762 115.482L196.721 143.281L224.862 137.248L218.902 109.45Z" fill="white"/>
<path d="M192.64 142.67C192.64 142.67 193.97 133.1 196.17 131.59C198.37 130.08 198.81 133.87 198.81 133.87C198.81 133.87 198.58 129.68 200.34 129.34C202.46 128.94 202.9 132.9 202.9 132.9C202.9 132.9 202.9 129.47 204.44 129.28C205.98 129.09 206.91 133.51 206.91 133.51C206.91 133.51 207.33 131.09 208.51 131.58C209.69 132.07 211.61 141.44 210.31 144.51C209.01 147.58 196.88 149.68 194.15 149.51C193.37 149.46 192.05 149.15 190.39 145.94C190.22 145.616 190.178 145.24 190.272 144.886C190.367 144.532 190.59 144.227 190.9 144.03L192.6 142.96L192.64 142.67Z" fill="#8E4B4C"/>
<path opacity="0.2" d="M198.963 133.84L199.012 141.15C199.008 141.201 198.985 141.248 198.948 141.283C198.911 141.317 198.863 141.338 198.812 141.34C198.787 141.343 198.762 141.34 198.737 141.333C198.713 141.325 198.691 141.312 198.672 141.295C198.653 141.278 198.638 141.257 198.628 141.234C198.618 141.211 198.612 141.186 198.613 141.16L198.562 133.85C198.564 133.825 198.57 133.801 198.581 133.778C198.591 133.756 198.607 133.735 198.625 133.719C198.644 133.702 198.665 133.689 198.689 133.681C198.713 133.672 198.738 133.669 198.762 133.67C198.787 133.667 198.812 133.67 198.835 133.677C198.859 133.684 198.881 133.696 198.899 133.712C198.918 133.728 198.933 133.747 198.944 133.769C198.955 133.791 198.961 133.816 198.963 133.84Z" fill="black"/>
<path opacity="0.2" d="M203.08 133.081L203.68 140.081C203.68 140.129 203.661 140.176 203.628 140.212C203.594 140.247 203.549 140.268 203.5 140.271C203.45 140.277 203.399 140.264 203.359 140.234C203.318 140.204 203.29 140.16 203.28 140.111L202.68 133.111C202.679 133.086 202.682 133.062 202.691 133.039C202.699 133.016 202.712 132.995 202.729 132.977C202.746 132.959 202.766 132.945 202.789 132.935C202.811 132.926 202.835 132.921 202.86 132.921C202.885 132.916 202.911 132.917 202.935 132.923C202.96 132.929 202.983 132.939 203.004 132.954C203.024 132.969 203.041 132.988 203.055 133.01C203.068 133.031 203.076 133.056 203.08 133.081Z" fill="black"/>
<path opacity="0.2" d="M207.092 133.72L207.692 138.93C207.692 138.983 207.671 139.034 207.633 139.072C207.596 139.109 207.545 139.13 207.492 139.13C207.439 139.13 207.388 139.109 207.35 139.072C207.313 139.034 207.292 138.983 207.292 138.93L206.692 133.73C206.69 133.705 206.694 133.68 206.702 133.657C206.711 133.633 206.723 133.612 206.74 133.593C206.757 133.574 206.777 133.559 206.8 133.549C206.822 133.538 206.847 133.532 206.872 133.53C206.899 133.528 206.926 133.53 206.952 133.539C206.978 133.547 207.002 133.56 207.023 133.578C207.043 133.596 207.06 133.618 207.072 133.642C207.084 133.666 207.09 133.693 207.092 133.72Z" fill="black"/>
<path d="M94.1719 126.78C99.9719 119.95 97.0819 104.09 94.4719 95.6299L116.332 109.15C116.027 110.206 115.797 111.282 115.642 112.37C115.289 114.316 115.444 116.321 116.092 118.19C116.692 119.73 119.562 124.71 119.562 124.71C119.562 124.71 124.662 134.1 112.462 135.57C100.372 136.47 94.1719 126.78 94.1719 126.78Z" fill="#8E4B4C"/>
<path opacity="0.2" d="M99.332 103.88C99.812 114.17 110.722 117.42 116.102 118.21C115.454 116.337 115.299 114.33 115.652 112.38L99.332 103.88Z" fill="black"/>
<path d="M113.542 63.3003C123.542 61.2303 118.332 69.3003 129.362 70.7703C129.652 77.4703 122.032 85.0403 119.122 80.9303C115.932 76.4103 105.202 64.9403 113.542 63.3003Z" fill="#263238"/>
<path d="M89.971 88.6208C94.261 100.171 96.441 106.771 104.381 110.941C116.331 117.211 129.381 107.621 128.731 94.9408C128.141 83.5608 121.221 66.5808 107.941 65.5308C94.871 64.5308 85.641 77.0708 89.971 88.6208Z" fill="#8E4B4C"/>
<path d="M106.722 86.5302C107.082 87.7302 108.032 88.5302 108.842 88.2602C109.652 87.9902 110.022 86.8302 109.652 85.6302C109.282 84.4302 108.342 83.6302 107.532 83.9002C106.722 84.1702 106.362 85.3202 106.722 86.5302Z" fill="#263238"/>
<path d="M119.061 83.8002C119.431 85.0102 120.381 85.8002 121.191 85.5302C122.001 85.2602 122.361 84.1102 121.991 82.9002C121.621 81.6902 120.681 80.9002 119.871 81.1702C119.061 81.4402 118.701 82.6002 119.061 83.8002Z" fill="#263238"/>
<path d="M116.422 84.0107C116.422 84.0107 122.162 88.8407 124.152 90.9007C122.882 92.9007 119.702 93.1107 119.702 93.1107L116.422 84.0107Z" fill="#703131"/>
<path d="M103.641 82.1001C103.748 82.1105 103.856 82.093 103.954 82.0491C104.052 82.0053 104.137 81.9367 104.201 81.8501C104.636 81.2275 105.206 80.7121 105.87 80.3431C106.534 79.974 107.273 79.761 108.031 79.72C108.19 79.7257 108.346 79.6696 108.465 79.5634C108.584 79.4573 108.658 79.3092 108.671 79.15C108.673 79.0717 108.66 78.9937 108.633 78.9204C108.605 78.8472 108.563 78.7802 108.509 78.7234C108.455 78.6666 108.39 78.6212 108.318 78.5897C108.246 78.5582 108.169 78.5413 108.091 78.54C107.13 78.5747 106.191 78.831 105.346 79.289C104.501 79.747 103.774 80.3942 103.221 81.18C103.173 81.2415 103.139 81.3121 103.119 81.3875C103.1 81.4628 103.096 81.5413 103.109 81.6181C103.121 81.6949 103.149 81.7685 103.19 81.8341C103.232 81.8998 103.286 81.9563 103.351 82C103.438 82.0568 103.537 82.0911 103.641 82.1001Z" fill="#263238"/>
<path d="M124.42 76.8403C124.524 76.7809 124.61 76.6945 124.67 76.5903C124.706 76.5215 124.729 76.446 124.736 76.3684C124.743 76.2908 124.735 76.2126 124.711 76.1382C124.688 76.0638 124.65 75.9948 124.6 75.9351C124.55 75.8754 124.489 75.8262 124.42 75.7903C123.578 75.3426 122.642 75.0985 121.689 75.0776C120.735 75.0568 119.79 75.2598 118.93 75.6703C118.845 75.6962 118.767 75.7407 118.702 75.8007C118.637 75.8606 118.586 75.9345 118.553 76.0167C118.521 76.099 118.507 76.1875 118.513 76.2758C118.519 76.3641 118.545 76.4499 118.589 76.5268C118.633 76.6037 118.694 76.6698 118.766 76.7201C118.839 76.7704 118.922 76.8037 119.01 76.8175C119.097 76.8312 119.187 76.8252 119.271 76.7997C119.356 76.7742 119.434 76.73 119.5 76.6703C120.183 76.3453 120.935 76.1885 121.692 76.2128C122.448 76.2372 123.188 76.442 123.85 76.8103C123.935 76.8614 124.031 76.8909 124.131 76.8961C124.23 76.9013 124.329 76.8822 124.42 76.8403Z" fill="#263238"/>
<path d="M119.901 97.2705C119.085 98.7597 118.379 100.307 117.791 101.9C117.501 101.84 117.201 101.79 116.911 101.72C112.911 100.9 111.351 99.2105 110.821 97.5705C110.582 96.7662 110.531 95.9177 110.671 95.0905C110.742 94.6199 110.88 94.162 111.081 93.7305C112.931 95.4305 116.571 96.4805 118.551 96.9605C119.411 97.1305 119.901 97.2705 119.901 97.2705Z" fill="#263238"/>
<path d="M118.551 96.9605L117.891 98.3105C114.151 97.5305 111.641 96.5305 110.641 95.0905C110.713 94.6213 110.847 94.1639 111.041 93.7305C112.951 95.4405 116.581 96.5305 118.551 96.9605Z" fill="white"/>
<path d="M116.93 101.81C112.93 100.99 111.36 99.3002 110.84 97.6602C112.347 98.0006 113.782 98.6031 115.08 99.4402C115.925 100.022 116.571 100.849 116.93 101.81Z" fill="#D7504D"/>
<path d="M125.49 54.0103C117.36 53.2303 114.62 54.1103 107.92 56.7803C108.947 54.4368 109.294 51.8515 108.92 49.3203C93.4302 62.6603 86.7002 56.4003 79.1802 64.0403C74.3702 68.9103 79.0802 75.0403 79.0802 75.0403C79.0802 75.0403 66.5902 83.1503 85.4202 97.1903C86.0202 98.7303 86.1802 100.19 85.5702 101.19C84.4402 102.99 82.3602 103.91 80.4102 104.74C83.6372 105.646 87.0767 105.424 90.1602 104.11C89.59 106.095 88.535 107.906 87.0902 109.38C89.2154 109.494 91.3353 109.075 93.2567 108.159C95.178 107.244 96.8397 105.862 98.0902 104.14L94.9702 95.6403C95.7495 95.5567 96.5363 95.5769 97.3102 95.7003C97.8693 92.8328 98.0308 89.9019 97.7902 86.9903C97.3702 84.7122 96.6507 82.4997 95.6502 80.4103C95.6502 80.4103 102.65 76.3103 102.77 71.4103C102.77 71.4103 115.19 75.0603 121.83 69.4803C128.47 63.9003 122.09 56.5303 125.49 54.0103Z" fill="#263238"/>
<path d="M88.1398 99.8501C89.0364 101.116 90.175 102.192 91.4897 103.016C92.8044 103.84 94.2693 104.395 95.7998 104.65C99.9398 105.33 100.13 101.09 98.6698 97.4801C97.3498 94.2301 95.1198 90.4801 91.1098 91.4801C87.0998 92.4801 85.9798 96.7101 88.1398 99.8501Z" fill="#8E4B4C"/>
<path opacity="0.2" d="M89.9219 95.7802C90.0947 95.3597 90.3863 94.9986 90.761 94.741C91.1357 94.4835 91.5773 94.3408 92.0319 94.3302C92.942 94.323 93.8274 94.6263 94.5419 95.1902C95.4184 95.8188 96.1093 96.6721 96.5419 97.6602" stroke="black" stroke-width="0.5" stroke-linecap="round" stroke-linejoin="round"/>
<path d="M63.6406 169.58C63.6406 169.58 74.3706 211.58 81.5506 216.14C88.7306 220.7 140.081 198.81 140.081 198.81L133.921 188.81L92.2306 195.01C90.9006 193.55 85.7106 160.87 85.7106 160.87L63.6406 169.58Z" fill="#8E4B4C"/>
<path d="M84.8912 148.21C87.0912 163.21 90.2812 179.21 90.2812 179.21L61.8712 183.81C61.8712 183.81 58.2212 136.38 72.4912 130.81C77.3912 130.79 82.5012 131.85 84.8912 148.21Z" fill="#263238"/>
<path d="M152.221 186.721L152.981 185.251C153.861 182.811 151.561 181.161 151.561 181.161C151.681 179.081 149.741 176.831 148.951 176.311C148.161 175.791 139.901 182.311 139.901 182.311L137.901 177.211C135.887 179.172 134.169 181.415 132.801 183.871L128.391 190.871C129.621 196.611 132.451 198.241 135.551 199.561C136.081 199.781 142.691 198.321 145.871 197.461C148.781 196.671 153.221 194.391 154.211 190.531C155.201 186.671 152.221 186.721 152.221 186.721Z" fill="#8E4B4C"/>
<path opacity="0.2" d="M92.273 195.021L88.543 204.451L95.703 194.511L92.273 195.021Z" fill="black"/>
<path d="M417.637 71.4298C417.308 70.4771 416.914 69.5482 416.457 68.6498C413.541 62.6577 408.519 57.9504 402.351 55.4283C396.183 52.9061 389.301 52.746 383.022 54.9786C376.743 57.2111 371.508 61.6796 368.316 67.5297C365.125 73.3798 364.202 80.2009 365.724 86.6888C367.245 93.1767 371.105 98.8761 376.564 102.697C382.024 106.518 388.701 108.193 395.317 107.401C401.934 106.609 408.027 103.406 412.43 98.4045C416.834 93.4029 419.239 86.9536 419.187 80.2898C419.179 77.2697 418.655 74.2732 417.637 71.4298Z" fill="#407BFF"/>
<path opacity="0.5" d="M419.227 80.2698C419.201 77.2545 418.663 74.2654 417.637 71.4298C417.308 70.4771 416.914 69.5482 416.457 68.6498C413.541 62.6577 408.519 57.9504 402.351 55.4283C396.183 52.9061 389.301 52.746 383.022 54.9786C376.743 57.2111 371.508 61.6796 368.316 67.5297C365.125 73.3798 364.202 80.2009 365.724 86.6888C367.245 93.1767 371.105 98.8761 376.564 102.697C382.024 106.518 388.701 108.193 395.317 107.401C401.934 106.609 408.027 103.406 412.43 98.4045C416.834 93.4029 419.239 86.9536 419.187 80.2898L419.227 80.2698Z" fill="white"/>
<path d="M409.91 72.2798C408.08 69.8098 405.1 71.0798 403.69 73.2798C401.93 71.3898 398.77 70.6598 397.39 73.3998C395.07 78.0298 401 81.6198 403.77 82.9798L404.56 83.3698L405.27 82.8498C407.77 80.9998 413 76.4498 409.91 72.2798Z" fill="#407BFF"/>
<path d="M387.099 73.4701C385.609 70.7801 382.489 71.6301 380.809 73.5801C379.309 71.4801 376.279 70.3201 374.549 72.8501C371.619 77.1301 376.999 81.4901 379.549 83.2201L380.269 83.7101L381.049 83.2901C383.789 81.8301 389.639 78.0101 387.099 73.4701Z" fill="#407BFF"/>
<path d="M392.538 91.7302C389.098 91.0502 387.668 86.9002 387.388 84.6102C387.38 84.4731 387.424 84.3381 387.512 84.2327C387.6 84.1273 387.725 84.0594 387.862 84.0428C387.998 84.0263 388.135 84.0623 388.246 84.1435C388.357 84.2248 388.433 84.3452 388.458 84.4802C388.458 84.5502 389.298 90.8402 393.608 90.7702C397.918 90.7002 398.258 83.9302 398.268 83.8502C398.27 83.7806 398.286 83.7122 398.316 83.6489C398.345 83.5856 398.386 83.5286 398.437 83.4812C398.488 83.4338 398.548 83.397 398.613 83.3728C398.679 83.3486 398.748 83.3376 398.818 83.3402C398.887 83.3428 398.956 83.3591 399.019 83.3881C399.082 83.4172 399.139 83.4584 399.187 83.5095C399.234 83.5606 399.271 83.6205 399.295 83.6858C399.319 83.7512 399.33 83.8206 399.328 83.8902C399.328 84.2102 398.918 91.7402 393.618 91.8202C393.255 91.8294 392.893 91.7993 392.538 91.7302Z" fill="#263238"/>
<path d="M409.82 84.0398C409.29 84.5798 408.66 84.8398 408.41 84.5898C408.16 84.3398 408.41 83.7198 408.92 83.1698C409.43 82.6198 410.07 82.3898 410.32 82.6198C410.57 82.8498 410.34 83.5298 409.82 84.0398Z" fill="#407BFF"/>
<path d="M412.048 84.3102C411.518 84.8602 410.888 85.1002 410.648 84.8602C410.408 84.6202 410.648 83.9802 411.158 83.4402C411.668 82.9002 412.308 82.6502 412.548 82.8902C412.788 83.1302 412.638 83.7702 412.048 84.3102Z" fill="#407BFF"/>
<path d="M375.73 84.4096C376.31 84.8996 376.96 85.0696 377.18 84.7996C377.4 84.5296 377.11 83.9396 376.53 83.4496C375.95 82.9596 375.3 82.7896 375.07 83.0596C374.84 83.3296 375.14 83.9296 375.73 84.4096Z" fill="#407BFF"/>
<path d="M373.528 84.9196C374.108 85.3996 374.758 85.5796 374.978 85.3096C375.198 85.0396 374.908 84.4395 374.318 83.9595C373.728 83.4795 373.088 83.2996 372.878 83.5596C372.668 83.8196 372.948 84.4296 373.528 84.9196Z" fill="#407BFF"/>
<path d="M69.9987 218.73C69.6509 217.641 69.2265 216.579 68.7287 215.55C66.2333 210.337 62.3254 205.928 57.4492 202.826C52.5729 199.723 46.9241 198.05 41.1446 197.998C35.3652 197.946 29.6871 199.517 24.7558 202.531C19.8244 205.545 15.8377 209.883 13.2487 215.05C12.6614 216.238 12.1471 217.46 11.7087 218.71C10.1903 222.964 9.6228 227.499 10.0463 231.995C10.4697 236.492 11.8739 240.841 14.1597 244.737C16.4456 248.632 19.5577 251.979 23.2768 254.542C26.9959 257.105 31.2317 258.821 35.6858 259.57C40.1399 260.319 44.704 260.083 49.0568 258.878C53.4096 257.672 57.4453 255.527 60.8796 252.594C64.3139 249.66 67.0633 246.009 68.9343 241.898C70.8053 237.788 71.7523 233.316 71.7087 228.8C71.7132 225.371 71.135 221.966 69.9987 218.73Z" fill="#407BFF"/>
<path opacity="0.3" d="M69.9987 218.73C69.6509 217.641 69.2265 216.579 68.7287 215.55C66.2333 210.337 62.3254 205.928 57.4492 202.826C52.5729 199.723 46.9241 198.05 41.1446 197.998C35.3652 197.946 29.6871 199.517 24.7558 202.531C19.8244 205.545 15.8377 209.883 13.2487 215.05C12.6614 216.238 12.1471 217.46 11.7087 218.71C10.1903 222.964 9.6228 227.499 10.0463 231.995C10.4697 236.492 11.8739 240.841 14.1597 244.737C16.4456 248.632 19.5577 251.979 23.2768 254.542C26.9959 257.105 31.2317 258.821 35.6858 259.57C40.1399 260.319 44.704 260.083 49.0568 258.878C53.4096 257.672 57.4453 255.527 60.8796 252.594C64.3139 249.66 67.0633 246.009 68.9343 241.898C70.8053 237.788 71.7523 233.316 71.7087 228.8C71.7132 225.371 71.135 221.966 69.9987 218.73Z" fill="white"/>
<path d="M44.1289 221.6C44.1289 221.6 46.1289 216.89 49.7389 216.65C54.3689 216.38 56.1389 221.7 56.1389 221.7L54.3389 221.77C54.3389 221.77 52.6889 217.64 49.9089 217.97C46.4389 218.38 45.1289 221.97 45.1289 221.97L44.1289 221.6Z" fill="#263238"/>
<path d="M35.9883 221.6C35.9883 221.6 33.7083 216.99 30.0883 216.97C25.4583 216.97 23.9883 222.36 23.9883 222.36L25.7983 222.42C25.7983 222.42 27.2183 218.19 30.0083 218.37C33.4783 218.59 35.0083 222.14 35.0083 222.14L35.9883 221.6Z" fill="#263238"/>
<path d="M29.6372 226.9C29.6372 226.9 42.5672 228.57 51.9772 226.3C51.9772 226.3 51.4572 239.09 40.4172 238.36C29.3772 237.63 29.6372 226.9 29.6372 226.9Z" fill="#263238"/>
<path d="M29.9805 227.43C29.9805 227.43 42.3005 229.08 51.2605 226.83C51.2605 226.83 51.0405 228.32 50.6705 228.6C50.1747 228.828 49.6548 228.999 49.1205 229.11C49.0596 229.304 48.941 229.475 48.7805 229.6C47.9105 230.14 44.6405 230.04 44.6405 230.04C44.6405 230.04 44.6405 230.3 44.4905 230.38C43.9375 230.677 43.3275 230.851 42.7014 230.893C42.0754 230.934 41.4477 230.841 40.8605 230.62C40.6617 230.399 40.5088 230.141 40.4105 229.86C40.4105 229.86 40.2805 230.54 40.1105 230.67C39.6601 230.845 39.178 230.922 38.6956 230.898C38.2131 230.874 37.7412 230.749 37.3105 230.53C37.1183 230.344 36.9683 230.119 36.8705 229.87C35.9403 230.026 34.9906 230.026 34.0605 229.87C33.8414 229.672 33.6527 229.443 33.5005 229.19C33.5005 229.19 31.0605 229.35 30.5005 228.88C30.1605 228.61 29.9805 227.43 29.9805 227.43Z" fill="white"/>
<path d="M40.937 237.88C43.177 238 47.737 236.32 48.107 234.79C48.477 233.26 46.687 232.45 44.797 232.92C43.655 233.222 42.5821 233.742 41.637 234.45C41.637 234.45 38.277 232.72 35.637 233.45C34.057 233.95 33.817 237.53 40.937 237.88Z" fill="#407BFF"/>
<path opacity="0.3" d="M25.3579 227.53C25.0979 229.3 22.6379 230.38 19.8579 229.95C17.0779 229.52 15.0679 227.73 15.3179 226.01C15.5679 224.29 18.0579 223.17 20.8079 223.65C23.5579 224.13 25.6379 225.82 25.3579 227.53Z" fill="white"/>
<path opacity="0.3" d="M66.4395 224.29C66.9795 225.99 65.2495 228.05 62.5795 228.9C59.9095 229.75 57.2895 229.03 56.7595 227.38C56.2295 225.73 57.9595 223.62 60.6395 222.83C63.3195 222.04 65.9095 222.59 66.4395 224.29Z" fill="white"/>
<path d="M230.99 256.68C230.783 256.061 230.529 255.46 230.23 254.88C228.342 250.97 225.086 247.889 221.079 246.219C217.071 244.549 212.591 244.407 208.485 245.819C204.38 247.231 200.935 250.1 198.803 253.882C196.671 257.663 195.999 262.096 196.915 266.339C197.832 270.583 200.273 274.343 203.775 276.908C207.278 279.473 211.6 280.664 215.922 280.256C220.244 279.848 224.267 277.87 227.228 274.695C230.189 271.52 231.884 267.37 231.99 263.03C231.99 262.823 231.99 262.613 231.99 262.4C231.98 260.45 231.642 258.517 230.99 256.68Z" fill="#407BFF"/>
<path opacity="0.6" d="M230.99 256.68C230.783 256.061 230.529 255.46 230.23 254.88C228.342 250.97 225.086 247.889 221.079 246.219C217.071 244.549 212.591 244.407 208.485 245.819C204.38 247.231 200.935 250.1 198.803 253.882C196.671 257.663 195.999 262.096 196.915 266.339C197.832 270.583 200.273 274.343 203.775 276.908C207.278 279.473 211.6 280.664 215.922 280.256C220.244 279.848 224.267 277.87 227.228 274.695C230.189 271.52 231.884 267.37 231.99 263.03C231.99 262.823 231.99 262.613 231.99 262.4C231.98 260.45 231.642 258.517 230.99 256.68Z" fill="white"/>
<path d="M214.328 269.05C211.428 269.05 208.778 267.58 207.768 265.39C207.713 265.272 207.708 265.138 207.753 265.016C207.798 264.894 207.89 264.795 208.008 264.74C208.065 264.711 208.127 264.694 208.191 264.69C208.254 264.685 208.318 264.693 208.379 264.714C208.439 264.734 208.495 264.766 208.543 264.809C208.591 264.851 208.63 264.903 208.658 264.96C209.273 265.912 210.118 266.694 211.113 267.235C212.109 267.777 213.224 268.061 214.358 268.061C215.491 268.061 216.606 267.777 217.602 267.235C218.597 266.694 219.442 265.912 220.058 264.96C220.114 264.844 220.214 264.755 220.335 264.712C220.457 264.669 220.591 264.675 220.708 264.73C220.826 264.785 220.917 264.884 220.962 265.006C221.007 265.128 221.002 265.262 220.948 265.38C220.286 266.539 219.319 267.495 218.151 268.142C216.984 268.789 215.661 269.103 214.328 269.05Z" fill="#263238"/>
<path d="M220.9 258.529C221.291 258.561 221.655 258.738 221.921 259.026C222.187 259.315 222.335 259.692 222.335 260.084C222.335 260.477 222.187 260.854 221.921 261.142C221.655 261.431 221.291 261.608 220.9 261.639C220.685 261.657 220.469 261.629 220.265 261.559C220.062 261.489 219.875 261.377 219.717 261.231C219.559 261.085 219.432 260.907 219.346 260.71C219.259 260.513 219.215 260.3 219.215 260.084C219.215 259.869 219.259 259.656 219.346 259.459C219.432 259.261 219.559 259.084 219.717 258.938C219.875 258.792 220.062 258.68 220.265 258.61C220.469 258.54 220.685 258.512 220.9 258.529Z" fill="#263238"/>
<path d="M209.33 260.04C209.347 260.255 209.32 260.471 209.249 260.674C209.179 260.878 209.067 261.065 208.921 261.223C208.775 261.381 208.598 261.508 208.401 261.594C208.203 261.68 207.99 261.725 207.775 261.725C207.559 261.725 207.346 261.68 207.149 261.594C206.952 261.508 206.775 261.381 206.628 261.223C206.482 261.065 206.371 260.878 206.3 260.674C206.23 260.471 206.203 260.255 206.22 260.04C206.219 259.836 206.258 259.634 206.335 259.446C206.413 259.257 206.527 259.085 206.671 258.941C206.815 258.797 206.986 258.683 207.175 258.606C207.364 258.528 207.566 258.489 207.77 258.49C208.181 258.493 208.575 258.657 208.867 258.947C209.158 259.236 209.325 259.629 209.33 260.04Z" fill="#263238"/>
<circle cx="360.5" cy="158.5" r="41.5" fill="url(#paint0_linear_178_58503)"/>
<path d="M354.829 147H355.76C356.355 147.14 356.923 147.375 357.442 147.696C358.017 148.033 358.592 148.358 359.182 148.689L373.793 157C374.322 157.275 374.789 157.655 375.167 158.115C375.475 158.489 375.643 158.957 375.643 159.44C375.643 159.923 375.475 160.391 375.167 160.765C374.789 161.225 374.322 161.604 373.793 161.879L357.295 171.271C356.897 171.51 356.467 171.694 356.019 171.817C354.651 172.159 353.528 171.514 353.16 170.164C353.047 169.724 352.993 169.271 353.001 168.817C353.001 162.562 353.001 156.308 353.001 150.055C353.001 149.909 353.001 149.762 353.001 149.617C353.114 148.408 353.512 147.39 354.829 147Z" fill="white"/>
</g>
<defs>
<linearGradient id="paint0_linear_178_58503" x1="319" y1="158.5" x2="402" y2="158.5" gradientUnits="userSpaceOnUse">
<stop stop-color="#6A11CB"/>
<stop offset="1" stop-color="#2575FC"/>
</linearGradient>
<clipPath id="clip0_178_58503">
<rect width="419.23" height="384.7" fill="white"/>
</clipPath>
</defs>
</svg>
