<svg width="360" height="54" viewBox="0 0 360 54" fill="none" xmlns="http://www.w3.org/2000/svg">
<path d="M360 53H361V52V10.3333C361 5.0157 355.897 1 350 1H222C216.714 1 212.05 3.39841 207.92 6.64038C204.062 9.66807 200.578 13.5083 197.423 16.9852C197.205 17.2249 196.989 17.4628 196.775 17.6987C192.863 22.0022 187.199 25 180 25C172.914 25 167.241 21.9918 163.294 17.6677C163.099 17.4544 162.903 17.2394 162.706 17.023C159.526 13.534 156.005 9.67097 152.108 6.62912C147.962 3.39346 143.285 1 138 1H10C4.10333 1 -1 5.0157 -1 10.3333V52V53H0H360Z" fill="white" stroke="#EEF1F5" stroke-width="2"/>
</svg>
